<?xml version="1.0" encoding="utf-8"?>
<!-- Generator: Adobe Illustrator 23.0.1, SVG Export Plug-In . SVG Version: 6.00 Build 0)  -->
<svg version="1.1" id="Layer_1" xmlns="http://www.w3.org/2000/svg" xmlns:xlink="http://www.w3.org/1999/xlink" x="0px" y="0px"
	 viewBox="0 0 342 257" style="enable-background:new 0 0 342 257;" xml:space="preserve">
<style type="text/css">
	.st0{fill:#F2F27C;}
	.st1{fill:#44A370;}
	.st2{fill:#50A4DD;}
	.st3{fill:#FFFFFF;}
</style>
<path class="st0" d="M46,65.9v119.63c0,1.72,0.1,3.41,0.28,5.07c0.48,4.35,1.57,8.51,3.19,12.35c2.28,5.47,5.61,10.31,9.69,14.21
	l-0.87,0.44l-0.68,0.35L28,233l11.56-29.57C17.8,203.43,0,184.58,0,161.53V41.9C0,18.86,17.8,0,39.56,0h228.88
	c15.72,0,29.38,9.85,35.74,24H84.02C63.11,24,46,42.86,46,65.9z"/>
<path class="st1" d="M308,41.9v119.63c0,23.05-17.8,41.9-39.56,41.9L87,203l-27.84,14.16c-4.08-3.9-7.41-8.74-9.69-14.21
	c-1.62-3.84-2.71-8-3.19-12.35c-0.18-1.66-0.28-3.35-0.28-5.07V65.9C46,42.86,63.11,24,84.02,24h220.16c2.08,4.61,3.38,9.67,3.72,15
	C307.97,39.96,308,40.93,308,41.9z"/>
<path class="st2" d="M342,65.9v119.63c0,23.05-17.11,41.9-38.02,41.9L315.09,257l-56.7-30l-174.37,0.43
	c-9.48,0-18.19-3.88-24.86-10.27L87,203l181.44,0.43c21.76,0,39.56-18.85,39.56-41.9V41.9c0-0.97-0.03-1.94-0.1-2.9
	c-0.34-5.33-1.64-10.39-3.72-15C325,24.12,342,42.93,342,65.9z"/>
<g>
	<path class="st3" d="M285.91,98.9c-1.13-8.27-9.78-15.26-16.6-18.74c-6.01-3.07-13.34-7.14-22.72-10.41
		c-5.03-1.75-10.42-3.01-14.12-5.82c-11.77-8.95-4.62-23.94,1.16-33.83c3.47-5.92,7.49-12,8.59-18.98
		c3.44-21.95-16.39-28.88-31.51-34.4c-18.31-6.68-41.8-11.79-65.58-10.16c-13.68,0.94-2.38,8.61,3.82,11.41
		c11.74,5.3,29.27,12.35,36.1,21.23c1.3,1.68,8.85,14.33,5.54,16.79c-2.14,1.58-10.05-1.29-12.45-1.91
		c-11.49-2.93-26.88-5-41.15-3.89c-14.92,1.17-35.19,5-49.23,12.12c-10.96,5.55-13.97-7.27-22.4-11.02C60.53,9.13,51.96,7.96,45,8
		c-9.47,0.06-23,5-24,9s9.03,10.12,13.06,12.79c4.99,3.29,13.26,9.78,14.38,15.9c0.98,5.39-5,9.38-7.54,12.25
		c-2.14,2.41-4.87,5.51-6.93,8.9c-1.98,3.25-4.18,9.83-6.62,10.88c-2.83,1.23-6.1,1.87-9.66,2.83c-4.6,1.26-9.95,3.72-14.01,7.06
		c-3.15,2.59-10.35,9.22-8.81,14.03c1.2,3.76,11.15,1.03,14.34,0.61c4.9-0.67,12.96-1.44,15.38,0.39
		c4.43,3.34,6.53,11.83,9.58,17.37c3.09,5.61,8.39,9.8,8.22,15.33c-0.15,4.89-8.21,5.27-12.38,6.66c-3,1-19.85,1.51-21,5
		c-2.03,6.2,17.04,16.58,22,18c14,4,19.1,2.48,25,1c8-2,13.25-6.82,22.07-6.21c11.38,0.79,19.37,7.91,29.33,10.91
		c21.29,6.43,50.18,7.31,71.24,1.32c0.94-0.26,12.1-4.59,13.27-1.76c1.44,3.46-7.86,11.58-10.29,13.82
		c-8.79,8.12-17.21,14.75-27.54,20.97c-6.55,3.94-23.13,15.44-1.44,13.79c28.34-2.15,49.71-10.2,70.33-20.44
		c6.72-3.33,15.91-10.11,18.03-13.4c6.69-10.37-1.36-24-5-30c-3.07-5.05-17.9-20.38-5.64-27.08c8.21-4.49,22.31-4.76,31.58-8.27
		C269.4,116.83,287.42,110.14,285.91,98.9z"/>
</g>
</svg>
